<svg xmlns="http://www.w3.org/2000/svg" width="16" height="16" fill="none" viewBox="0 0 16 16"><path stroke="#000" stroke-width="1" d="M8 .685a7.5 7.5 0 0 0-7.5 7.5 7.495 7.495 0 0 0 5.127 7.116c.375.065.516-.16.516-.357 0-.178-.009-.768-.009-1.397-1.884.347-2.372-.459-2.522-.88-.084-.216-.45-.882-.769-1.06-.262-.14-.637-.488-.009-.497.591-.01 1.013.544 1.154.769.675 1.134 1.753.815 2.184.618.066-.487.262-.815.478-1.003-1.669-.187-3.412-.834-3.412-3.703 0-.815.29-1.49.768-2.015-.075-.188-.337-.957.075-1.988 0 0 .628-.197 2.063.769.6-.169 1.237-.253 1.875-.253s1.275.084 1.875.253c1.434-.975 2.062-.769 2.062-.769.413 1.031.15 1.8.075 1.988.478.525.77 1.19.77 2.015 0 2.878-1.754 3.516-3.423 3.703.272.235.506.685.506 1.388 0 1.003-.009 1.81-.009 2.062 0 .197.141.432.516.357a7.51 7.51 0 0 0 5.11-7.116c0-4.144-3.357-7.5-7.5-7.5z" clip-rule="evenodd"/></svg>
