<svg xmlns="http://www.w3.org/2000/svg" width="16" height="16" viewBox="0 0 16 16"><g fill="none" stroke="#000"><path d="m4.497 8.927 1.47 4.095s.19.395.394.395"/><path d="m6.464 9.882-.293 3.112s-.123.954.83 0 1.665-1.524 1.665-1.524"/><path d="M4.469 8.95 1.33 7.928s-.375-.152-.254-.497c.024-.071.075-.132.225-.236.695-.485 12.868-4.86 12.868-4.86s.343-.116.546-.039a.3.3 0 0 1 .202.22 1 1 0 0 1 .027.277c0 .081-.01.156-.018.273-.074 1.196-2.293 10.124-2.293 10.124s-.133.522-.608.54a.87.87 0 0 1-.635-.246c-.933-.802-4.159-2.97-4.872-3.447a.14.14 0 0 1-.058-.096c-.01-.05.044-.113.044-.113s5.617-4.993 5.767-5.517c.011-.04-.032-.06-.091-.043-.373.137-6.84 4.222-7.554 4.672a.34.34 0 0 1-.159.01z"/></g></svg>
